<svg xmlns="http://www.w3.org/2000/svg" width="392" height="392" preserveAspectRatio="xMidYMid meet" version="1.0" viewBox="0 0 294 294"><metadata>Created by potrace 1.11, written by Peter Selinger 2001-2013</metadata><g fill="#000" stroke="none"><path d="M2450 2933 c-49 -9 -206 -91 -286 -149 -93 -68 -174 -136 -174 -146 0 -4 14 -15 30 -23 29 -15 33 -14 113 25 107 52 157 60 187 30 19 -19 22 -30 17 -70 -3 -27 -23 -86 -43 -132 -59 -129 -49 -124 -129 -71 -686 447 -1610 76 -1795 -721 -64 -277 -31 -553 97 -801 14 -27 31 -60 37 -72 6 -13 14 -23 19 -23 4 0 7 -6 7 -13 0 -17 92 -131 162 -200 68 -67 69 -61 -38 -130 -86 -55 -120 -73 -160 -81 -67 -15 -82 51 -39 170 27 73 26 95 -3 132 l-18 24 -42 -64 c-62 -96 -118 -215 -147 -312 -40 -141 -31 -225 30 -272 86 -65 290 -23 560 115 111 57 301 171 342 206 7 5 37 28 68 50 50 35 171 131 185 145 3 3 36 32 75 65 156 135 389 381 505 534 14 18 30 38 36 44 22 25 148 202 208 295 132 203 268 463 331 632 15 41 31 84 35 95 25 62 64 218 76 300 16 116 7 265 -17 289 -5 6 -9 17 -9 25 0 22 -49 75 -85 93 -30 15 -90 20 -135 11z" transform="translate(0.000000,294.000000) scale(0.100000,-0.100000)"/><path d="M2668 1516 c-75 -57 -352 -324 -453 -436 -116 -129 -189 -218 -282 -345 -57 -77 -107 -144 -111 -150 -19 -25 -172 -275 -172 -282 0 -4 -9 -19 -20 -33 -28 -36 -25 -40 28 -34 74 8 93 12 188 39 364 104 666 391 787 745 46 134 59 209 63 363 3 81 1 147 -3 147 -5 0 -16 -7 -25 -14z" transform="translate(0.000000,294.000000) scale(0.100000,-0.100000)"/></g></svg>